<mxfile host="app.diagrams.net" modified="2023-01-04T17:53:26.852Z" agent="5.0 (Windows)" etag="Wh5PZ0Xz3wI6dGlvGSkN" version="20.8.1" type="github">
  <diagram name="Page-1" id="c4acf3e9-155e-7222-9cf6-157b1a14988f">
    <mxGraphModel dx="3770" dy="782" grid="1" gridSize="10" guides="1" tooltips="1" connect="1" arrows="1" fold="1" page="1" pageScale="1" pageWidth="2336" pageHeight="1654" background="none" math="0" shadow="0">
      <root>
        <mxCell id="0" />
        <mxCell id="1" parent="0" />
        <mxCell id="J00o2H0Ra1XBxUk8elXU-73" style="edgeStyle=none;rounded=0;orthogonalLoop=1;jettySize=auto;html=1;entryX=0;entryY=0.5;entryDx=0;entryDy=0;dashed=1;startArrow=none;startFill=0;endArrow=openThin;endFill=0;endSize=12;" parent="1" source="J00o2H0Ra1XBxUk8elXU-5" target="J00o2H0Ra1XBxUk8elXU-50" edge="1">
          <mxGeometry relative="1" as="geometry" />
        </mxCell>
        <mxCell id="yc5PQkqxArnro5Qsx9ax-14" value="Dependecy" style="edgeLabel;html=1;align=center;verticalAlign=middle;resizable=0;points=[];" parent="J00o2H0Ra1XBxUk8elXU-73" vertex="1" connectable="0">
          <mxGeometry x="-0.4742" y="1" relative="1" as="geometry">
            <mxPoint as="offset" />
          </mxGeometry>
        </mxCell>
        <mxCell id="J00o2H0Ra1XBxUk8elXU-74" style="edgeStyle=none;rounded=0;orthogonalLoop=1;jettySize=auto;html=1;entryX=0;entryY=0.5;entryDx=0;entryDy=0;dashed=1;startArrow=none;startFill=0;endArrow=openThin;endFill=0;endSize=12;" parent="1" source="J00o2H0Ra1XBxUk8elXU-5" target="J00o2H0Ra1XBxUk8elXU-51" edge="1">
          <mxGeometry relative="1" as="geometry" />
        </mxCell>
        <mxCell id="yc5PQkqxArnro5Qsx9ax-15" value="Dependecy" style="edgeLabel;html=1;align=center;verticalAlign=middle;resizable=0;points=[];" parent="J00o2H0Ra1XBxUk8elXU-74" vertex="1" connectable="0">
          <mxGeometry x="-0.57" y="-1" relative="1" as="geometry">
            <mxPoint as="offset" />
          </mxGeometry>
        </mxCell>
        <mxCell id="J00o2H0Ra1XBxUk8elXU-75" style="edgeStyle=none;rounded=0;orthogonalLoop=1;jettySize=auto;html=1;entryX=0;entryY=0.5;entryDx=0;entryDy=0;dashed=1;startArrow=none;startFill=0;endArrow=openThin;endFill=0;endSize=12;" parent="1" source="J00o2H0Ra1XBxUk8elXU-5" target="J00o2H0Ra1XBxUk8elXU-49" edge="1">
          <mxGeometry relative="1" as="geometry" />
        </mxCell>
        <mxCell id="yc5PQkqxArnro5Qsx9ax-13" value="Dependency" style="edgeLabel;html=1;align=center;verticalAlign=middle;resizable=0;points=[];" parent="J00o2H0Ra1XBxUk8elXU-75" vertex="1" connectable="0">
          <mxGeometry x="-0.4486" relative="1" as="geometry">
            <mxPoint as="offset" />
          </mxGeometry>
        </mxCell>
        <mxCell id="J00o2H0Ra1XBxUk8elXU-5" value="&lt;p style=&quot;margin:0px;margin-top:6px;text-align:center;&quot;&gt;&lt;/p&gt;&lt;p style=&quot;text-align: center; margin:0px;margin-left:8px;&quot;&gt;&lt;b&gt;&amp;lt;&amp;lt; Web Framework &amp;gt;&amp;gt;&lt;/b&gt;&lt;/p&gt;&lt;p style=&quot;text-align: center; margin:0px;margin-left:8px;&quot;&gt;Portal Client Module&lt;/p&gt;" style="align=left;overflow=fill;html=1;dropTarget=0;" parent="1" vertex="1">
          <mxGeometry x="-2200" y="810" width="220" height="150" as="geometry" />
        </mxCell>
        <mxCell id="J00o2H0Ra1XBxUk8elXU-6" value="" style="shape=component;jettyWidth=8;jettyHeight=4;" parent="J00o2H0Ra1XBxUk8elXU-5" vertex="1">
          <mxGeometry x="1" width="20" height="20" relative="1" as="geometry">
            <mxPoint x="-24" y="4" as="offset" />
          </mxGeometry>
        </mxCell>
        <mxCell id="J00o2H0Ra1XBxUk8elXU-7" value="&lt;p style=&quot;margin:0px;margin-top:6px;text-align:center;&quot;&gt;&lt;/p&gt;&lt;p style=&quot;text-align: center; margin: 0px 0px 0px 8px;&quot;&gt;&lt;b&gt;&amp;lt;&amp;lt; artifact &amp;gt;&amp;gt;&lt;/b&gt;&lt;/p&gt;&lt;p style=&quot;text-align: center; margin: 0px 0px 0px 8px;&quot;&gt;&lt;b&gt;&lt;br&gt;&lt;/b&gt;&lt;/p&gt;&lt;p style=&quot;text-align: center; margin: 0px 0px 0px 8px;&quot;&gt;Scripts&lt;/p&gt;" style="align=left;overflow=fill;html=1;dropTarget=0;" parent="J00o2H0Ra1XBxUk8elXU-5" vertex="1">
          <mxGeometry x="120" y="60" width="90" height="70" as="geometry" />
        </mxCell>
        <mxCell id="J00o2H0Ra1XBxUk8elXU-8" value="&lt;p style=&quot;margin:0px;margin-top:6px;text-align:center;&quot;&gt;&lt;/p&gt;&lt;p style=&quot;text-align: center; margin: 0px 0px 0px 8px;&quot;&gt;&lt;b&gt;&amp;lt;&amp;lt; artifact &amp;gt;&amp;gt;&lt;/b&gt;&lt;/p&gt;&lt;p style=&quot;text-align: center; margin: 0px 0px 0px 8px;&quot;&gt;&lt;b&gt;&lt;br&gt;&lt;/b&gt;&lt;/p&gt;&lt;p style=&quot;text-align: center; margin: 0px 0px 0px 8px;&quot;&gt;Styles&lt;/p&gt;" style="align=left;overflow=fill;html=1;dropTarget=0;" parent="1" vertex="1">
          <mxGeometry x="-2190" y="870" width="90" height="70" as="geometry" />
        </mxCell>
        <mxCell id="J00o2H0Ra1XBxUk8elXU-11" style="edgeStyle=orthogonalEdgeStyle;rounded=0;orthogonalLoop=1;jettySize=auto;html=1;startArrow=box;startFill=0;endArrow=oval;endFill=0;endSize=12;sourcePerimeterSpacing=20;targetPerimeterSpacing=20;exitX=-0.001;exitY=0.459;exitDx=0;exitDy=0;exitPerimeter=0;" parent="1" source="J00o2H0Ra1XBxUk8elXU-12" edge="1">
          <mxGeometry relative="1" as="geometry">
            <mxPoint x="-800" y="655" as="targetPoint" />
            <Array as="points">
              <mxPoint x="-770" y="912" />
              <mxPoint x="-770" y="692" />
            </Array>
            <mxPoint x="-700" y="912" as="sourcePoint" />
          </mxGeometry>
        </mxCell>
        <mxCell id="J00o2H0Ra1XBxUk8elXU-12" value="&lt;p style=&quot;margin: 6px 0px 0px; font-size: 13px;&quot;&gt;&lt;span style=&quot;font-size: 13px;&quot;&gt;&lt;font style=&quot;font-size: 13px;&quot;&gt;&amp;lt;&amp;lt; component &amp;gt;&amp;gt;&lt;/font&gt;&lt;/span&gt;&lt;/p&gt;&lt;hr style=&quot;font-size: 13px;&quot;&gt;&lt;p style=&quot;margin: 0px 0px 0px 8px; font-size: 13px;&quot;&gt;&lt;b&gt;Coin Information Service&lt;/b&gt;&lt;/p&gt;&lt;p style=&quot;margin: 0px 0px 0px 8px; font-size: 13px;&quot;&gt;&lt;span style=&quot;background-color: transparent;&quot;&gt;&lt;span style=&quot;font-family: &amp;quot;gg sans&amp;quot;, &amp;quot;Noto Sans&amp;quot;, &amp;quot;Helvetica Neue&amp;quot;, Helvetica, Arial, sans-serif; font-style: normal; font-variant-ligatures: normal; font-variant-caps: normal; letter-spacing: normal; text-align: left; text-indent: 0px; text-transform: none; word-spacing: 0px; -webkit-text-stroke-width: 0px; text-decoration-thickness: initial; text-decoration-style: initial; text-decoration-color: initial; display: inline !important; float: none;&quot;&gt;(Python)&lt;/span&gt;&lt;/span&gt;&lt;/p&gt;" style="align=center;overflow=fill;html=1;dropTarget=0;fontStyle=0;fontSize=13;" parent="1" vertex="1">
          <mxGeometry x="-720" y="880" width="200" height="80" as="geometry" />
        </mxCell>
        <mxCell id="J00o2H0Ra1XBxUk8elXU-13" value="" style="shape=component;jettyWidth=8;jettyHeight=4;" parent="J00o2H0Ra1XBxUk8elXU-12" vertex="1">
          <mxGeometry x="1" width="20" height="20" relative="1" as="geometry">
            <mxPoint x="-24" y="4" as="offset" />
          </mxGeometry>
        </mxCell>
        <mxCell id="J00o2H0Ra1XBxUk8elXU-14" style="edgeStyle=orthogonalEdgeStyle;rounded=0;orthogonalLoop=1;jettySize=auto;html=1;startArrow=box;startFill=0;endArrow=oval;endFill=0;endSize=12;sourcePerimeterSpacing=20;targetPerimeterSpacing=20;exitX=0;exitY=0.5;exitDx=0;exitDy=0;" parent="1" source="J00o2H0Ra1XBxUk8elXU-15" edge="1">
          <mxGeometry relative="1" as="geometry">
            <mxPoint x="-800" y="725" as="targetPoint" />
          </mxGeometry>
        </mxCell>
        <mxCell id="J00o2H0Ra1XBxUk8elXU-15" value="&lt;p style=&quot;margin: 6px 0px 0px; font-size: 13px;&quot;&gt;&lt;span style=&quot;font-size: 13px;&quot;&gt;&lt;font style=&quot;font-size: 13px;&quot;&gt;&amp;lt;&amp;lt; component &amp;gt;&amp;gt;&lt;/font&gt;&lt;/span&gt;&lt;/p&gt;&lt;hr style=&quot;font-size: 13px;&quot;&gt;&lt;p style=&quot;margin: 0px 0px 0px 8px; font-size: 13px;&quot;&gt;&lt;b&gt;News Information Service&lt;/b&gt;&lt;/p&gt;&lt;div&gt;&lt;span style=&quot;background-color: transparent;&quot;&gt;&lt;span style=&quot;font-family: &amp;quot;gg sans&amp;quot;, &amp;quot;Noto Sans&amp;quot;, &amp;quot;Helvetica Neue&amp;quot;, Helvetica, Arial, sans-serif; font-style: normal; font-variant-ligatures: normal; font-variant-caps: normal; letter-spacing: normal; text-align: left; text-indent: 0px; text-transform: none; word-spacing: 0px; -webkit-text-stroke-width: 0px; text-decoration-thickness: initial; text-decoration-style: initial; text-decoration-color: initial; display: inline !important; float: none;&quot;&gt;(Python)&lt;/span&gt;&lt;/span&gt;&lt;/div&gt;" style="align=center;overflow=fill;html=1;dropTarget=0;fontStyle=0;fontSize=13;" parent="1" vertex="1">
          <mxGeometry x="-720" y="975" width="200" height="80" as="geometry" />
        </mxCell>
        <mxCell id="J00o2H0Ra1XBxUk8elXU-16" value="" style="shape=component;jettyWidth=8;jettyHeight=4;" parent="J00o2H0Ra1XBxUk8elXU-15" vertex="1">
          <mxGeometry x="1" width="20" height="20" relative="1" as="geometry">
            <mxPoint x="-24" y="4" as="offset" />
          </mxGeometry>
        </mxCell>
        <mxCell id="J00o2H0Ra1XBxUk8elXU-18" style="edgeStyle=orthogonalEdgeStyle;rounded=0;orthogonalLoop=1;jettySize=auto;html=1;endArrow=oval;endFill=0;targetPerimeterSpacing=20;sourcePerimeterSpacing=20;endSize=12;exitX=-0.003;exitY=0.441;exitDx=0;exitDy=0;startArrow=box;startFill=0;exitPerimeter=0;" parent="1" source="J00o2H0Ra1XBxUk8elXU-19" edge="1">
          <mxGeometry relative="1" as="geometry">
            <mxPoint x="-830" y="535" as="targetPoint" />
            <mxPoint x="-730" y="477" as="sourcePoint" />
            <Array as="points">
              <mxPoint x="-830" y="475" />
            </Array>
          </mxGeometry>
        </mxCell>
        <mxCell id="J00o2H0Ra1XBxUk8elXU-19" value="&lt;p style=&quot;margin: 6px 0px 0px; text-align: center; font-size: 11px;&quot;&gt;&lt;b style=&quot;&quot;&gt;&lt;font style=&quot;font-size: 11px;&quot;&gt;&amp;lt;&amp;lt; component &amp;gt;&amp;gt;&lt;/font&gt;&lt;/b&gt;&lt;/p&gt;&lt;hr style=&quot;font-size: 11px;&quot;&gt;&lt;p style=&quot;text-align: center; margin: 0px 0px 0px 8px;&quot;&gt;&lt;b&gt;User Information Service&lt;/b&gt;&lt;/p&gt;&lt;p style=&quot;text-align: center; margin: 0px 0px 0px 8px;&quot;&gt;&lt;span style=&quot;background-color: transparent;&quot;&gt;&lt;span style=&quot;font-family: &amp;quot;gg sans&amp;quot;, &amp;quot;Noto Sans&amp;quot;, &amp;quot;Helvetica Neue&amp;quot;, Helvetica, Arial, sans-serif; font-style: normal; font-variant-ligatures: normal; font-variant-caps: normal; letter-spacing: normal; text-align: left; text-indent: 0px; text-transform: none; word-spacing: 0px; -webkit-text-stroke-width: 0px; text-decoration-thickness: initial; text-decoration-style: initial; text-decoration-color: initial; display: inline !important; float: none;&quot;&gt;(Python)&lt;/span&gt;&lt;/span&gt;&lt;/p&gt;" style="align=left;overflow=fill;html=1;dropTarget=0;" parent="1" vertex="1">
          <mxGeometry x="-720" y="440" width="200" height="80" as="geometry" />
        </mxCell>
        <mxCell id="J00o2H0Ra1XBxUk8elXU-20" value="" style="shape=component;jettyWidth=8;jettyHeight=4;" parent="J00o2H0Ra1XBxUk8elXU-19" vertex="1">
          <mxGeometry x="1" width="20" height="20" relative="1" as="geometry">
            <mxPoint x="-24" y="4" as="offset" />
          </mxGeometry>
        </mxCell>
        <mxCell id="J00o2H0Ra1XBxUk8elXU-21" style="edgeStyle=orthogonalEdgeStyle;rounded=0;orthogonalLoop=1;jettySize=auto;html=1;startArrow=box;startFill=0;endArrow=oval;endFill=0;endSize=12;sourcePerimeterSpacing=20;targetPerimeterSpacing=20;exitX=0;exitY=0.512;exitDx=0;exitDy=0;exitPerimeter=0;" parent="1" source="J00o2H0Ra1XBxUk8elXU-22" edge="1">
          <mxGeometry relative="1" as="geometry">
            <mxPoint x="-790" y="565" as="targetPoint" />
            <mxPoint x="-719" y="571.0000000000001" as="sourcePoint" />
            <Array as="points">
              <mxPoint x="-770" y="571" />
              <mxPoint x="-770" y="565" />
            </Array>
          </mxGeometry>
        </mxCell>
        <mxCell id="J00o2H0Ra1XBxUk8elXU-22" value="&lt;p style=&quot;margin: 6px 0px 0px; text-align: center; font-size: 11px;&quot;&gt;&lt;b style=&quot;&quot;&gt;&lt;font style=&quot;font-size: 11px;&quot;&gt;&amp;lt;&amp;lt; component &amp;gt;&amp;gt;&lt;/font&gt;&lt;/b&gt;&lt;/p&gt;&lt;hr style=&quot;font-size: 11px;&quot;&gt;&lt;p style=&quot;text-align: center; margin: 0px 0px 0px 8px;&quot;&gt;&lt;b&gt;Notifications Service&lt;/b&gt;&lt;/p&gt;&lt;p style=&quot;text-align: center; margin: 0px 0px 0px 8px;&quot;&gt;&lt;span style=&quot;background-color: transparent;&quot;&gt;&lt;span style=&quot;font-family: &amp;quot;gg sans&amp;quot;, &amp;quot;Noto Sans&amp;quot;, &amp;quot;Helvetica Neue&amp;quot;, Helvetica, Arial, sans-serif; font-style: normal; font-variant-ligatures: normal; font-variant-caps: normal; letter-spacing: normal; text-align: left; text-indent: 0px; text-transform: none; word-spacing: 0px; -webkit-text-stroke-width: 0px; text-decoration-thickness: initial; text-decoration-style: initial; text-decoration-color: initial; display: inline !important; float: none;&quot;&gt;(Python)&lt;/span&gt;&lt;/span&gt;&lt;/p&gt;" style="align=left;overflow=fill;html=1;dropTarget=0;" parent="1" vertex="1">
          <mxGeometry x="-720" y="530" width="200" height="80" as="geometry" />
        </mxCell>
        <mxCell id="J00o2H0Ra1XBxUk8elXU-23" value="" style="shape=component;jettyWidth=8;jettyHeight=4;" parent="J00o2H0Ra1XBxUk8elXU-22" vertex="1">
          <mxGeometry x="1" width="20" height="20" relative="1" as="geometry">
            <mxPoint x="-24" y="4" as="offset" />
          </mxGeometry>
        </mxCell>
        <mxCell id="J00o2H0Ra1XBxUk8elXU-24" style="edgeStyle=orthogonalEdgeStyle;rounded=0;orthogonalLoop=1;jettySize=auto;html=1;endArrow=halfCircle;endFill=0;startArrow=box;startFill=0;exitX=1;exitY=0.5;exitDx=0;exitDy=0;" parent="1" source="J00o2H0Ra1XBxUk8elXU-26" edge="1">
          <mxGeometry relative="1" as="geometry">
            <mxPoint x="-830" y="535" as="targetPoint" />
            <mxPoint x="-930" y="802" as="sourcePoint" />
          </mxGeometry>
        </mxCell>
        <mxCell id="J00o2H0Ra1XBxUk8elXU-26" value="&lt;p style=&quot;margin: 6px 0px 0px; font-size: 13px;&quot;&gt;&lt;span style=&quot;font-size: 13px;&quot;&gt;&lt;font style=&quot;font-size: 13px;&quot;&gt;&amp;lt;&amp;lt; component &amp;gt;&amp;gt;&lt;/font&gt;&lt;/span&gt;&lt;/p&gt;&lt;hr style=&quot;font-size: 13px;&quot;&gt;&lt;p style=&quot;margin: 0px 0px 0px 8px; font-size: 13px;&quot;&gt;&lt;b&gt;Authentication&lt;/b&gt;&lt;/p&gt;&lt;div&gt;&lt;span style=&quot;background-color: transparent;&quot;&gt;(&lt;span style=&quot;font-family: &amp;quot;gg sans&amp;quot;, &amp;quot;Noto Sans&amp;quot;, &amp;quot;Helvetica Neue&amp;quot;, Helvetica, Arial, sans-serif; font-style: normal; font-variant-ligatures: normal; font-variant-caps: normal; letter-spacing: normal; text-align: left; text-indent: 0px; text-transform: none; word-spacing: 0px; -webkit-text-stroke-width: 0px; text-decoration-thickness: initial; text-decoration-style: initial; text-decoration-color: initial; display: inline !important; float: none;&quot;&gt;Python - REST&lt;/span&gt;&lt;/span&gt;)&lt;br&gt;&lt;/div&gt;" style="align=center;overflow=fill;html=1;dropTarget=0;fontStyle=0;fontSize=13;" parent="1" vertex="1">
          <mxGeometry x="-1130" y="495" width="200" height="80" as="geometry" />
        </mxCell>
        <mxCell id="J00o2H0Ra1XBxUk8elXU-27" value="" style="shape=component;jettyWidth=8;jettyHeight=4;" parent="J00o2H0Ra1XBxUk8elXU-26" vertex="1">
          <mxGeometry x="1" width="20" height="20" relative="1" as="geometry">
            <mxPoint x="-24" y="4" as="offset" />
          </mxGeometry>
        </mxCell>
        <mxCell id="J00o2H0Ra1XBxUk8elXU-28" value="&lt;p style=&quot;margin: 6px 0px 0px; font-size: 13px;&quot;&gt;&lt;span style=&quot;font-size: 13px;&quot;&gt;&lt;font style=&quot;font-size: 13px;&quot;&gt;&amp;lt;&amp;lt; component &amp;gt;&amp;gt;&lt;/font&gt;&lt;/span&gt;&lt;/p&gt;&lt;hr style=&quot;font-size: 13px;&quot;&gt;&lt;p style=&quot;margin: 0px 0px 0px 8px; font-size: 13px;&quot;&gt;&lt;b&gt;Audit Log Services&lt;/b&gt;&lt;/p&gt;&lt;p style=&quot;margin: 0px 0px 0px 8px; font-size: 13px;&quot;&gt;&lt;span style=&quot;background-color: transparent;&quot;&gt;&lt;span style=&quot;font-family: &amp;quot;gg sans&amp;quot;, &amp;quot;Noto Sans&amp;quot;, &amp;quot;Helvetica Neue&amp;quot;, Helvetica, Arial, sans-serif; font-style: normal; font-variant-ligatures: normal; font-variant-caps: normal; letter-spacing: normal; text-align: left; text-indent: 0px; text-transform: none; word-spacing: 0px; -webkit-text-stroke-width: 0px; text-decoration-thickness: initial; text-decoration-style: initial; text-decoration-color: initial; display: inline !important; float: none;&quot;&gt;(Python)&lt;/span&gt;&lt;/span&gt;&lt;/p&gt;" style="align=center;overflow=fill;html=1;dropTarget=0;fontStyle=0;fontSize=13;" parent="1" vertex="1">
          <mxGeometry x="-720" y="630" width="200" height="80" as="geometry" />
        </mxCell>
        <mxCell id="J00o2H0Ra1XBxUk8elXU-29" value="" style="shape=component;jettyWidth=8;jettyHeight=4;" parent="J00o2H0Ra1XBxUk8elXU-28" vertex="1">
          <mxGeometry x="1" width="20" height="20" relative="1" as="geometry">
            <mxPoint x="-24" y="4" as="offset" />
          </mxGeometry>
        </mxCell>
        <mxCell id="J00o2H0Ra1XBxUk8elXU-31" style="edgeStyle=orthogonalEdgeStyle;rounded=0;orthogonalLoop=1;jettySize=auto;html=1;startArrow=box;startFill=0;endArrow=halfCircle;endFill=0;endSize=6;sourcePerimeterSpacing=20;targetPerimeterSpacing=20;exitX=1;exitY=0.5;exitDx=0;exitDy=0;" parent="1" source="J00o2H0Ra1XBxUk8elXU-34" edge="1">
          <mxGeometry relative="1" as="geometry">
            <mxPoint x="-800" y="655" as="targetPoint" />
            <Array as="points">
              <mxPoint x="-860" y="650" />
              <mxPoint x="-860" y="655" />
            </Array>
          </mxGeometry>
        </mxCell>
        <mxCell id="J00o2H0Ra1XBxUk8elXU-32" style="edgeStyle=orthogonalEdgeStyle;rounded=0;orthogonalLoop=1;jettySize=auto;html=1;startArrow=box;startFill=0;endArrow=halfCircle;endFill=0;endSize=6;sourcePerimeterSpacing=20;targetPerimeterSpacing=20;exitX=0.999;exitY=0.909;exitDx=0;exitDy=0;exitPerimeter=0;" parent="1" source="J00o2H0Ra1XBxUk8elXU-34" edge="1">
          <mxGeometry relative="1" as="geometry">
            <mxPoint x="-800" y="725" as="targetPoint" />
            <mxPoint x="-920" y="725" as="sourcePoint" />
            <Array as="points">
              <mxPoint x="-840" y="683" />
              <mxPoint x="-840" y="725" />
            </Array>
          </mxGeometry>
        </mxCell>
        <mxCell id="J00o2H0Ra1XBxUk8elXU-33" style="edgeStyle=orthogonalEdgeStyle;rounded=0;orthogonalLoop=1;jettySize=auto;html=1;startArrow=box;startFill=0;endArrow=halfCircle;endFill=0;endSize=6;sourcePerimeterSpacing=20;targetPerimeterSpacing=20;" parent="1" edge="1">
          <mxGeometry relative="1" as="geometry">
            <mxPoint x="-790" y="565" as="targetPoint" />
            <Array as="points">
              <mxPoint x="-910" y="619" />
              <mxPoint x="-910" y="589" />
              <mxPoint x="-830" y="589" />
              <mxPoint x="-830" y="565" />
              <mxPoint x="-800" y="565" />
            </Array>
            <mxPoint x="-930" y="619" as="sourcePoint" />
          </mxGeometry>
        </mxCell>
        <mxCell id="J00o2H0Ra1XBxUk8elXU-34" value="&lt;p style=&quot;margin: 6px 0px 0px; font-size: 13px;&quot;&gt;&lt;span style=&quot;font-size: 13px;&quot;&gt;&lt;font style=&quot;font-size: 13px;&quot;&gt;&amp;lt;&amp;lt; component &amp;gt;&amp;gt;&lt;/font&gt;&lt;/span&gt;&lt;/p&gt;&lt;hr style=&quot;font-size: 13px;&quot;&gt;&lt;p style=&quot;margin: 0px 0px 0px 8px; font-size: 13px;&quot;&gt;&lt;b&gt;API Gateway Service&lt;/b&gt;&lt;/p&gt;&lt;div&gt;&lt;span style=&quot;background-color: transparent;&quot;&gt;(&lt;span style=&quot;font-family: &amp;quot;gg sans&amp;quot;, &amp;quot;Noto Sans&amp;quot;, &amp;quot;Helvetica Neue&amp;quot;, Helvetica, Arial, sans-serif; font-style: normal; font-variant-ligatures: normal; font-variant-caps: normal; letter-spacing: normal; text-align: left; text-indent: 0px; text-transform: none; word-spacing: 0px; -webkit-text-stroke-width: 0px; text-decoration-thickness: initial; text-decoration-style: initial; text-decoration-color: initial; display: inline !important; float: none;&quot;&gt;Python - REST&lt;/span&gt;&lt;/span&gt;)&lt;br&gt;&lt;/div&gt;" style="align=center;overflow=fill;html=1;dropTarget=0;fontStyle=0;fontSize=13;" parent="1" vertex="1">
          <mxGeometry x="-1130" y="610" width="200" height="80" as="geometry" />
        </mxCell>
        <mxCell id="J00o2H0Ra1XBxUk8elXU-35" value="" style="shape=component;jettyWidth=8;jettyHeight=4;" parent="J00o2H0Ra1XBxUk8elXU-34" vertex="1">
          <mxGeometry x="1" width="20" height="20" relative="1" as="geometry">
            <mxPoint x="-24" y="4" as="offset" />
          </mxGeometry>
        </mxCell>
        <mxCell id="J00o2H0Ra1XBxUk8elXU-37" value="&lt;p style=&quot;margin: 6px 0px 0px; text-align: center; font-size: 11px;&quot;&gt;&lt;b style=&quot;&quot;&gt;&lt;font style=&quot;font-size: 11px;&quot;&gt;&amp;lt;&amp;lt; Datastore &amp;gt;&amp;gt;&lt;/font&gt;&lt;/b&gt;&lt;/p&gt;&lt;hr style=&quot;font-size: 11px;&quot;&gt;&lt;p style=&quot;text-align: center; margin: 0px 0px 0px 8px;&quot;&gt;&lt;b&gt;Portal Database&lt;/b&gt;&lt;/p&gt;&lt;p style=&quot;text-align: center; margin: 0px 0px 0px 8px;&quot;&gt;(MySQL)&lt;b&gt;&lt;br&gt;&lt;/b&gt;&lt;/p&gt;" style="align=left;overflow=fill;html=1;dropTarget=0;" parent="1" vertex="1">
          <mxGeometry x="-260" y="452" width="200" height="80" as="geometry" />
        </mxCell>
        <mxCell id="J00o2H0Ra1XBxUk8elXU-38" value="" style="shape=component;jettyWidth=8;jettyHeight=4;" parent="J00o2H0Ra1XBxUk8elXU-37" vertex="1">
          <mxGeometry x="1" width="20" height="20" relative="1" as="geometry">
            <mxPoint x="-24" y="4" as="offset" />
          </mxGeometry>
        </mxCell>
        <mxCell id="J00o2H0Ra1XBxUk8elXU-39" value="" style="endArrow=classic;html=1;rounded=0;fontSize=11;exitX=1;exitY=0.5;exitDx=0;exitDy=0;entryX=0;entryY=0.5;entryDx=0;entryDy=0;dashed=1;strokeWidth=2;" parent="1" source="J00o2H0Ra1XBxUk8elXU-19" target="J00o2H0Ra1XBxUk8elXU-37" edge="1">
          <mxGeometry width="50" height="50" relative="1" as="geometry">
            <mxPoint x="-350" y="775" as="sourcePoint" />
            <mxPoint x="-290" y="473.5" as="targetPoint" />
          </mxGeometry>
        </mxCell>
        <mxCell id="J00o2H0Ra1XBxUk8elXU-40" value="" style="endArrow=classic;html=1;rounded=0;fontSize=11;exitX=1;exitY=0.5;exitDx=0;exitDy=0;dashed=1;strokeWidth=2;entryX=0;entryY=0.5;entryDx=0;entryDy=0;" parent="1" source="J00o2H0Ra1XBxUk8elXU-22" target="J00o2H0Ra1XBxUk8elXU-37" edge="1">
          <mxGeometry width="50" height="50" relative="1" as="geometry">
            <mxPoint x="-510" y="490" as="sourcePoint" />
            <mxPoint x="-260" y="495" as="targetPoint" />
          </mxGeometry>
        </mxCell>
        <mxCell id="J00o2H0Ra1XBxUk8elXU-41" value="" style="endArrow=classic;html=1;rounded=0;fontSize=11;exitX=1;exitY=0.5;exitDx=0;exitDy=0;dashed=1;strokeWidth=2;entryX=0;entryY=0.5;entryDx=0;entryDy=0;" parent="1" source="J00o2H0Ra1XBxUk8elXU-28" target="J00o2H0Ra1XBxUk8elXU-37" edge="1">
          <mxGeometry width="50" height="50" relative="1" as="geometry">
            <mxPoint x="-510" y="580" as="sourcePoint" />
            <mxPoint x="-291.12000000000035" y="496.03099999999995" as="targetPoint" />
          </mxGeometry>
        </mxCell>
        <mxCell id="J00o2H0Ra1XBxUk8elXU-44" style="edgeStyle=orthogonalEdgeStyle;rounded=0;orthogonalLoop=1;jettySize=auto;html=1;startArrow=box;startFill=0;endArrow=halfCircle;endFill=0;endSize=6;sourcePerimeterSpacing=20;targetPerimeterSpacing=20;exitX=1;exitY=0.227;exitDx=0;exitDy=0;exitPerimeter=0;" parent="1" source="J00o2H0Ra1XBxUk8elXU-34" edge="1">
          <mxGeometry relative="1" as="geometry">
            <mxPoint x="-780" y="645" as="targetPoint" />
            <mxPoint x="-920" y="669.83" as="sourcePoint" />
            <Array as="points">
              <mxPoint x="-870" y="628" />
              <mxPoint x="-800" y="628" />
            </Array>
          </mxGeometry>
        </mxCell>
        <mxCell id="J00o2H0Ra1XBxUk8elXU-45" style="edgeStyle=orthogonalEdgeStyle;rounded=0;orthogonalLoop=1;jettySize=auto;html=1;startArrow=box;startFill=0;endArrow=oval;endFill=0;endSize=12;sourcePerimeterSpacing=20;targetPerimeterSpacing=20;exitX=-0.002;exitY=0.496;exitDx=0;exitDy=0;exitPerimeter=0;" parent="1" source="J00o2H0Ra1XBxUk8elXU-28" edge="1">
          <mxGeometry relative="1" as="geometry">
            <mxPoint x="-780" y="645" as="targetPoint" />
            <mxPoint x="-720" y="669.83" as="sourcePoint" />
            <Array as="points">
              <mxPoint x="-745" y="670" />
              <mxPoint x="-780" y="670" />
            </Array>
          </mxGeometry>
        </mxCell>
        <mxCell id="J00o2H0Ra1XBxUk8elXU-52" style="edgeStyle=orthogonalEdgeStyle;rounded=0;orthogonalLoop=1;jettySize=auto;html=1;endArrow=halfCircle;endFill=0;endSize=6;startArrow=box;startFill=0;" parent="1" edge="1">
          <mxGeometry relative="1" as="geometry">
            <mxPoint x="-1420" y="805" as="targetPoint" />
            <mxPoint x="-1510" y="802.0588235294117" as="sourcePoint" />
            <Array as="points">
              <mxPoint x="-1450" y="802" />
              <mxPoint x="-1450" y="805" />
            </Array>
          </mxGeometry>
        </mxCell>
        <mxCell id="J00o2H0Ra1XBxUk8elXU-71" style="edgeStyle=none;rounded=0;orthogonalLoop=1;jettySize=auto;html=1;dashed=1;startArrow=none;startFill=0;endArrow=openThin;endFill=0;endSize=12;exitX=1.005;exitY=0.198;exitDx=0;exitDy=0;exitPerimeter=0;entryX=0;entryY=0.5;entryDx=0;entryDy=0;" parent="1" source="J00o2H0Ra1XBxUk8elXU-5" target="J00o2H0Ra1XBxUk8elXU-47" edge="1">
          <mxGeometry relative="1" as="geometry">
            <mxPoint x="-1650" y="745" as="targetPoint" />
          </mxGeometry>
        </mxCell>
        <mxCell id="yc5PQkqxArnro5Qsx9ax-12" value="Dependency" style="edgeLabel;html=1;align=center;verticalAlign=middle;resizable=0;points=[];" parent="J00o2H0Ra1XBxUk8elXU-71" vertex="1" connectable="0">
          <mxGeometry x="-0.4133" relative="1" as="geometry">
            <mxPoint as="offset" />
          </mxGeometry>
        </mxCell>
        <mxCell id="J00o2H0Ra1XBxUk8elXU-47" value="&lt;div&gt;Login&lt;/div&gt;&lt;div&gt;&amp;lt;&amp;lt; component &amp;gt;&amp;gt;&lt;br&gt;&lt;/div&gt;" style="rounded=0;whiteSpace=wrap;html=1;" parent="1" vertex="1">
          <mxGeometry x="-1630" y="610" width="120" height="60" as="geometry" />
        </mxCell>
        <mxCell id="J00o2H0Ra1XBxUk8elXU-69" style="rounded=0;orthogonalLoop=1;jettySize=auto;html=1;startArrow=none;startFill=0;endArrow=openThin;endFill=0;endSize=12;dashed=1;exitX=1.008;exitY=0.401;exitDx=0;exitDy=0;entryX=0;entryY=0.5;entryDx=0;entryDy=0;exitPerimeter=0;" parent="1" source="J00o2H0Ra1XBxUk8elXU-5" target="J00o2H0Ra1XBxUk8elXU-48" edge="1">
          <mxGeometry relative="1" as="geometry">
            <mxPoint x="-1760" y="665" as="targetPoint" />
          </mxGeometry>
        </mxCell>
        <mxCell id="yc5PQkqxArnro5Qsx9ax-11" value="Dependency" style="edgeLabel;html=1;align=center;verticalAlign=middle;resizable=0;points=[];" parent="J00o2H0Ra1XBxUk8elXU-69" vertex="1" connectable="0">
          <mxGeometry x="-0.351" y="-1" relative="1" as="geometry">
            <mxPoint as="offset" />
          </mxGeometry>
        </mxCell>
        <mxCell id="J00o2H0Ra1XBxUk8elXU-48" value="&lt;div&gt;Register&lt;/div&gt;&lt;div&gt;&amp;lt;&amp;lt;&amp;nbsp;component&amp;nbsp;&amp;gt;&amp;gt;&lt;br&gt;&lt;/div&gt;" style="rounded=0;whiteSpace=wrap;html=1;" parent="1" vertex="1">
          <mxGeometry x="-1630" y="750" width="120" height="60" as="geometry" />
        </mxCell>
        <mxCell id="J00o2H0Ra1XBxUk8elXU-57" style="edgeStyle=orthogonalEdgeStyle;rounded=0;orthogonalLoop=1;jettySize=auto;html=1;startArrow=box;startFill=0;endArrow=halfCircle;endFill=0;endSize=6;" parent="1" source="J00o2H0Ra1XBxUk8elXU-49" edge="1">
          <mxGeometry relative="1" as="geometry">
            <mxPoint x="-1420" y="885" as="targetPoint" />
          </mxGeometry>
        </mxCell>
        <mxCell id="J00o2H0Ra1XBxUk8elXU-49" value="Profile&lt;div&gt;&amp;lt;&amp;lt;&amp;nbsp;component&amp;nbsp;&amp;gt;&amp;gt;&lt;br&gt;&lt;/div&gt;" style="rounded=0;whiteSpace=wrap;html=1;" parent="1" vertex="1">
          <mxGeometry x="-1630" y="855" width="120" height="60" as="geometry" />
        </mxCell>
        <mxCell id="J00o2H0Ra1XBxUk8elXU-58" style="edgeStyle=orthogonalEdgeStyle;rounded=0;orthogonalLoop=1;jettySize=auto;html=1;startArrow=box;startFill=0;endArrow=halfCircle;endFill=0;endSize=6;" parent="1" source="J00o2H0Ra1XBxUk8elXU-50" edge="1">
          <mxGeometry relative="1" as="geometry">
            <mxPoint x="-1420" y="978" as="targetPoint" />
          </mxGeometry>
        </mxCell>
        <mxCell id="J00o2H0Ra1XBxUk8elXU-50" value="View Coins&lt;br&gt;&lt;div&gt;&amp;lt;&amp;lt;&amp;nbsp;component&amp;nbsp;&amp;gt;&amp;gt;&lt;br&gt;&lt;/div&gt;" style="rounded=0;whiteSpace=wrap;html=1;" parent="1" vertex="1">
          <mxGeometry x="-1630" y="948" width="120" height="60" as="geometry" />
        </mxCell>
        <mxCell id="J00o2H0Ra1XBxUk8elXU-59" style="edgeStyle=orthogonalEdgeStyle;rounded=0;orthogonalLoop=1;jettySize=auto;html=1;startArrow=box;startFill=0;endArrow=halfCircle;endFill=0;endSize=6;" parent="1" source="J00o2H0Ra1XBxUk8elXU-51" edge="1">
          <mxGeometry relative="1" as="geometry">
            <mxPoint x="-1410" y="1068" as="targetPoint" />
          </mxGeometry>
        </mxCell>
        <mxCell id="J00o2H0Ra1XBxUk8elXU-51" value="View News&lt;br&gt;&lt;div&gt;&amp;lt;&amp;lt;&amp;nbsp;component&amp;nbsp;&amp;gt;&amp;gt;&lt;br&gt;&lt;/div&gt;" style="rounded=0;whiteSpace=wrap;html=1;" parent="1" vertex="1">
          <mxGeometry x="-1630" y="1038" width="120" height="60" as="geometry" />
        </mxCell>
        <mxCell id="yc5PQkqxArnro5Qsx9ax-2" style="edgeStyle=orthogonalEdgeStyle;rounded=0;orthogonalLoop=1;jettySize=auto;html=1;endArrow=halfCircle;endFill=0;endSize=6;startArrow=box;startFill=0;exitX=1;exitY=0.5;exitDx=0;exitDy=0;" parent="1" source="J00o2H0Ra1XBxUk8elXU-47" edge="1">
          <mxGeometry relative="1" as="geometry">
            <mxPoint x="-1420" y="640" as="targetPoint" />
            <mxPoint x="-1500" y="812.0588235294117" as="sourcePoint" />
            <Array as="points">
              <mxPoint x="-1430" y="640" />
            </Array>
          </mxGeometry>
        </mxCell>
        <mxCell id="yc5PQkqxArnro5Qsx9ax-9" style="edgeStyle=orthogonalEdgeStyle;rounded=0;orthogonalLoop=1;jettySize=auto;html=1;startArrow=box;startFill=0;endArrow=oval;endFill=0;endSize=12;sourcePerimeterSpacing=20;targetPerimeterSpacing=20;exitX=-0.001;exitY=0.579;exitDx=0;exitDy=0;exitPerimeter=0;" parent="1" source="J00o2H0Ra1XBxUk8elXU-34" edge="1">
          <mxGeometry relative="1" as="geometry">
            <mxPoint x="-1210" y="698" as="targetPoint" />
            <mxPoint x="-1120" y="698" as="sourcePoint" />
            <Array as="points">
              <mxPoint x="-1180" y="698" />
            </Array>
          </mxGeometry>
        </mxCell>
        <mxCell id="yc5PQkqxArnro5Qsx9ax-10" style="edgeStyle=orthogonalEdgeStyle;rounded=0;orthogonalLoop=1;jettySize=auto;html=1;startArrow=box;startFill=0;endArrow=oval;endFill=0;endSize=12;sourcePerimeterSpacing=20;targetPerimeterSpacing=20;exitX=-0.001;exitY=0.538;exitDx=0;exitDy=0;exitPerimeter=0;" parent="1" source="J00o2H0Ra1XBxUk8elXU-26" edge="1">
          <mxGeometry relative="1" as="geometry">
            <mxPoint x="-1240" y="538" as="targetPoint" />
            <mxPoint x="-1120" y="805" as="sourcePoint" />
            <Array as="points">
              <mxPoint x="-1230" y="538" />
              <mxPoint x="-1240" y="538" />
            </Array>
          </mxGeometry>
        </mxCell>
        <mxCell id="yc5PQkqxArnro5Qsx9ax-16" style="rounded=0;orthogonalLoop=1;jettySize=auto;html=1;startArrow=none;startFill=0;endArrow=openThin;endFill=0;endSize=12;dashed=1;" parent="1" edge="1">
          <mxGeometry relative="1" as="geometry">
            <mxPoint x="-1420" y="635" as="sourcePoint" />
            <mxPoint x="-1250" y="545" as="targetPoint" />
          </mxGeometry>
        </mxCell>
        <mxCell id="yc5PQkqxArnro5Qsx9ax-17" value="Dependency" style="edgeLabel;html=1;align=center;verticalAlign=middle;resizable=0;points=[];" parent="yc5PQkqxArnro5Qsx9ax-16" vertex="1" connectable="0">
          <mxGeometry x="-0.351" y="-1" relative="1" as="geometry">
            <mxPoint x="6" y="-30" as="offset" />
          </mxGeometry>
        </mxCell>
        <mxCell id="yc5PQkqxArnro5Qsx9ax-18" style="rounded=0;orthogonalLoop=1;jettySize=auto;html=1;startArrow=none;startFill=0;endArrow=openThin;endFill=0;endSize=12;dashed=1;" parent="1" edge="1">
          <mxGeometry relative="1" as="geometry">
            <mxPoint x="-1420" y="885" as="sourcePoint" />
            <mxPoint x="-1217" y="698" as="targetPoint" />
          </mxGeometry>
        </mxCell>
        <mxCell id="yc5PQkqxArnro5Qsx9ax-19" value="Dependency" style="edgeLabel;html=1;align=center;verticalAlign=middle;resizable=0;points=[];" parent="yc5PQkqxArnro5Qsx9ax-18" vertex="1" connectable="0">
          <mxGeometry x="-0.351" y="-1" relative="1" as="geometry">
            <mxPoint x="6" y="-30" as="offset" />
          </mxGeometry>
        </mxCell>
        <mxCell id="yc5PQkqxArnro5Qsx9ax-20" style="rounded=0;orthogonalLoop=1;jettySize=auto;html=1;startArrow=none;startFill=0;endArrow=openThin;endFill=0;endSize=12;dashed=1;" parent="1" edge="1">
          <mxGeometry relative="1" as="geometry">
            <mxPoint x="-1420" y="975" as="sourcePoint" />
            <mxPoint x="-1215" y="702" as="targetPoint" />
          </mxGeometry>
        </mxCell>
        <mxCell id="yc5PQkqxArnro5Qsx9ax-21" value="Dependency" style="edgeLabel;html=1;align=center;verticalAlign=middle;resizable=0;points=[];" parent="yc5PQkqxArnro5Qsx9ax-20" vertex="1" connectable="0">
          <mxGeometry x="-0.351" y="-1" relative="1" as="geometry">
            <mxPoint x="6" y="-30" as="offset" />
          </mxGeometry>
        </mxCell>
        <mxCell id="yc5PQkqxArnro5Qsx9ax-22" style="rounded=0;orthogonalLoop=1;jettySize=auto;html=1;startArrow=none;startFill=0;endArrow=openThin;endFill=0;endSize=12;dashed=1;" parent="1" edge="1">
          <mxGeometry relative="1" as="geometry">
            <mxPoint x="-1420" y="805" as="sourcePoint" />
            <mxPoint x="-1240" y="545" as="targetPoint" />
          </mxGeometry>
        </mxCell>
        <mxCell id="yc5PQkqxArnro5Qsx9ax-23" value="Dependency" style="edgeLabel;html=1;align=center;verticalAlign=middle;resizable=0;points=[];" parent="yc5PQkqxArnro5Qsx9ax-22" vertex="1" connectable="0">
          <mxGeometry x="-0.351" y="-1" relative="1" as="geometry">
            <mxPoint x="6" y="-30" as="offset" />
          </mxGeometry>
        </mxCell>
        <mxCell id="yc5PQkqxArnro5Qsx9ax-24" style="rounded=0;orthogonalLoop=1;jettySize=auto;html=1;startArrow=none;startFill=0;endArrow=openThin;endFill=0;endSize=12;dashed=1;" parent="1" edge="1">
          <mxGeometry relative="1" as="geometry">
            <mxPoint x="-1410" y="1065" as="sourcePoint" />
            <mxPoint x="-1210" y="705" as="targetPoint" />
          </mxGeometry>
        </mxCell>
        <mxCell id="yc5PQkqxArnro5Qsx9ax-25" value="Dependency" style="edgeLabel;html=1;align=center;verticalAlign=middle;resizable=0;points=[];" parent="yc5PQkqxArnro5Qsx9ax-24" vertex="1" connectable="0">
          <mxGeometry x="-0.351" y="-1" relative="1" as="geometry">
            <mxPoint x="6" y="-30" as="offset" />
          </mxGeometry>
        </mxCell>
        <mxCell id="jrPxW0Ope4PV7HKKTBX4-1" value="" style="endArrow=classic;html=1;rounded=0;fontSize=11;exitX=1;exitY=0.5;exitDx=0;exitDy=0;dashed=1;strokeWidth=2;entryX=0;entryY=0.5;entryDx=0;entryDy=0;" parent="1" source="J00o2H0Ra1XBxUk8elXU-12" target="J00o2H0Ra1XBxUk8elXU-37" edge="1">
          <mxGeometry width="50" height="50" relative="1" as="geometry">
            <mxPoint x="-510" y="680" as="sourcePoint" />
            <mxPoint x="-250" y="502" as="targetPoint" />
          </mxGeometry>
        </mxCell>
      </root>
    </mxGraphModel>
  </diagram>
</mxfile>
